FFmpeg version SVN-r25716, Copyright (c) 2000-2010 the FFmpeg developers  built on Nov 10 2010 12:23:18 with gcc 4.1.2 20080704 (Red Hat 4.1.2-48)  configuration: --enable-libmp3lame --enable-shared --disable-mmx --arch=x86_64  libavutil     50.33. 0 / 50.33. 0  libavcore      0.12. 1 /  0.12. 1  libavcodec    52.94. 4 / 52.94. 4  libavformat   52.84. 0 / 52.84. 0  libavdevice   52. 2. 2 / 52. 2. 2  libavfilter    1.59. 0 /  1.59. 0  libswscale     0.12. 0 /  0.12. 0[mov,mp4,m4a,3gp,3g2,mj2 @ 0x16f104c0] max_analyze_duration reachedSeems stream 0 codec frame rate differs from container frame rate: 600.00 (600/1) -> 15.00 (15/1)Input #0, mov,mp4,m4a,3gp,3g2,mj2, from '/RAID10/data/converted_video_files/35204.mov':  Duration: 00:00:05.66, bitrate: 1236 kb/s    Stream #0.0(eng): Video: svq1, yuv410p, 320x240, 1234 kb/s, 15 fps, 15 tbr, 600 tbn, 600 tbc[buffer @ 0x16f13870] w:320 h:240 pixfmt:yuv410p[ffsink @ 0x16f15c90] auto-inserting filter 'auto-inserted scaler 0' between the filter 'src' and the filter 'out'[scale @ 0x16f15fb0] w:320 h:240 fmt:yuv410p -> w:320 h:240 fmt:yuv420p flags:0x4Output #0, flv, to '/RAID10/data/converted_video_files/35204.flv':  Metadata:    encoder         : Lavf52.84.0    Stream #0.0(eng): Video: flv, yuv420p, 320x240, q=2-31, 600 kb/s, 1k tbn, 24 tbcStream mapping:  Stream #0.0 -> #0.0Press [q] to stop encodingframe=    6 fps=  0 q=2.0 size=      52kB time=0.38 bitrate=1125.0kbits/s    frame=   12 fps= 11 q=3.3 size=      89kB time=0.75 bitrate= 974.0kbits/s    frame=   19 fps= 11 q=3.6 size=     118kB time=1.25 bitrate= 775.9kbits/s    frame=   26 fps= 12 q=4.4 size=     156kB time=1.71 bitrate= 746.3kbits/s    frame=   34 fps= 12 q=4.5 size=     186kB time=2.25 bitrate= 678.8kbits/s    frame=   41 fps= 12 q=4.1 size=     213kB time=2.71 bitrate= 645.7kbits/s    frame=   47 fps= 12 q=4.9 size=     238kB time=3.12 bitrate= 623.5kbits/s    frame=   62 fps= 14 q=4.4 size=     333kB time=4.12 bitrate= 662.1kbits/s    frame=   84 fps= 18 q=5.1 size=     405kB time=5.58 bitrate= 594.2kbits/s    frame=   85 fps= 18 q=4.3 Lsize=     405kB time=5.62 bitrate= 589.9kbits/s    video:403kB audio:0kB global headers:0kB muxing overhead 0.379990%